<?xml version="1.0" encoding="utf-8"?>
<!-- Generator: Adobe Illustrator 16.0.0, SVG Export Plug-In . SVG Version: 6.00 Build 0)  -->
<!DOCTYPE svg PUBLIC "-//W3C//DTD SVG 1.1//EN" "http://www.w3.org/Graphics/SVG/1.1/DTD/svg11.dtd">
<svg version="1.1" id="Layer_1" xmlns="http://www.w3.org/2000/svg" xmlns:xlink="http://www.w3.org/1999/xlink" x="0px" y="0px"
	 width="100px" height="50px" viewBox="0 0 100 50" enable-background="new 0 0 100 50" xml:space="preserve">
<g>
	<path fill-rule="evenodd" clip-rule="evenodd" d="M61.215-244.25c6.506,1.092,13.1,1.814,19.504,3.338
		c32.86,7.814,56.949,27.415,73.934,56.113c4.286,7.243,7.606,15.057,10.929,22.93c-28.852-38.36-66.456-59.896-114.876-59.76
		c-48.339,0.135-85.851,21.843-114.871,59.9c1.108-2.727,2.107-5.504,3.339-8.173c13.813-29.912,34.548-52.958,65.536-65.733
		c10.455-4.31,21.367-6.856,32.627-7.921c1.221-0.115,2.422-0.457,3.631-0.693C47.717-244.25,54.466-244.25,61.215-244.25z"/>
	<path fill-rule="evenodd" clip-rule="evenodd" d="M-219.25,15.217c1.369-7.594,2.205-15.331,4.199-22.758
		c9.258-34.478,31.358-58.413,62.453-74.687c5.043-2.639,10.371-4.736,15.81-6.778c-38.444,28.709-59.973,66.318-59.841,114.735
		c0.132,48.343,21.838,85.855,60.15,114.408c-0.174,0.313-0.349,0.627-0.523,0.94c-7.715-3.931-15.708-7.401-23.096-11.872
		c-30.995-18.756-50.95-45.439-57.333-81.564c-0.713-4.041-1.218-8.117-1.819-12.178C-219.25,28.716-219.25,21.967-219.25,15.217z"
		/>
	<path fill-rule="evenodd" clip-rule="evenodd" d="M255.891,23.364c-17.514,1.778-35.092,3.079-52.516,5.499
		c-12.075,1.677-23.932,4.918-35.897,7.409c-2.292,0.477-3.164,1.721-3.466,4.053c-6.685,51.446-46.852,91.941-97.825,98.597
		c-2.378,0.311-3.03,1.467-3.575,3.469c-5.298,19.477-8.118,39.354-9.631,59.433c-0.731,9.715-1.209,19.448-1.716,27.758
		c-0.859-12.118-1.158-25.717-2.947-39.118c-2.143-16.052-5.581-31.93-8.4-47.893c-0.451-2.554-1.903-3.32-4.333-3.602
		c-48.252-5.593-89.445-45.01-97.401-93.11c-1.368-8.271-1.362-8.298-9.553-10.267c-23.533-5.655-47.464-8.22-71.599-9.207
		c-1.873-0.076-3.746-0.143-5.617-0.249c-0.158-0.01-0.3-0.294-0.704-0.718c6.647-0.386,13.063-0.718,19.474-1.137
		c21.475-1.403,42.723-4.273,63.58-9.755c2.381-0.626,3.345-1.663,3.748-4.199c6.779-42.749,30.069-73.013,69.725-90.143
		c9.031-3.9,19.122-5.407,28.796-7.714c2.323-0.555,3.339-1.471,3.916-3.661c4.816-18.288,7.787-36.883,9.233-55.718
		c0.832-10.832,1.372-21.685,1.969-31.348c0.801,11.374,1.521,23.96,2.611,36.516c1.504,17.317,4.432,34.407,8.955,51.212
		c0.532,1.978,1.478,2.768,3.558,3.033c48.789,6.227,88.81,44.716,96.881,93.516c0.847,5.117,2.692,7.201,7.695,8.361
		c19.78,4.587,39.801,7.241,60.035,8.272c8.34,0.425,16.721,0.071,25.083,0.071C255.943,22.936,255.917,23.149,255.891,23.364z
		 M147.945,25.71c-24.762-6.094-43.404-20.118-60.18-36.894C70.991-27.957,57.034-46.647,51.202-70.804
		c-5.809,24.39-19.882,42.992-36.648,59.781C-2.226,5.779-20.963,19.705-45.474,25.76C-7.08,33.53,43.333,83.1,51.267,122.035
		c5.772-24.17,19.82-42.782,36.601-59.544C104.633,45.745,123.278,31.782,147.945,25.71z M-46.531,8.021
		C-7.696-6.623,18.807-32.987,33.405-71.637C0.007-71.516-46.72-24.995-46.531,8.021z M-47.018,43.738
		c4.294,22.088,14.545,40.588,31.02,55.556c14.012,12.731,30.349,20.83,49.411,24.198C22.292,88.21-17.346,48.922-47.018,43.738z
		 M147.967,42.995c-38.212,14.964-64.434,41.497-78.956,80.046C111.594,116.537,144.332,77.805,147.967,42.995z M148.137,7.119
		c-7.882-44.13-45.312-73.889-79.071-78.676C83.599-33.389,109.656-7.229,148.137,7.119z"/>
	<path fill-rule="evenodd" clip-rule="evenodd" d="M-63.717,213.026c53.513,79.479,172.087,81.083,229.018,0.122
		c-8.688,23.583-22.431,43.605-42.469,59.042c-20.295,15.634-43.574,22.728-68.992,23.47
		C-13.116,297.616-51.385,251.291-63.717,213.026z"/>
	<path fill-rule="evenodd" clip-rule="evenodd" d="M237.229,140.654c81.451-55.829,80.674-174.292,0.854-229.576
		c20.704,7.511,38.662,19.206,53.424,35.656c18.418,20.526,27.595,44.862,29.017,72.195
		C324.033,86.422,280.375,125.615,237.229,140.654z"/>
	<path fill-rule="evenodd" clip-rule="evenodd" d="M74.003,36.109c5.005,4.839,10.01,9.677,15.015,14.514
		c-0.141,0.214-0.28,0.427-0.421,0.64c-6.447-2.54-12.895-5.081-20.273-7.99c2.817,7.221,5.35,13.711,7.883,20.2
		c-0.136,0.091-0.271,0.181-0.407,0.271c-4.708-5.015-9.417-10.03-14.127-15.045c-0.438,0.227-0.877,0.454-1.316,0.682
		c0,6.832,0,13.665,0,20.497c-0.361,0.073-0.723,0.147-1.085,0.221c-2.73-6.217-5.462-12.434-8.558-19.478
		c-3.082,7.059-5.835,13.364-8.588,19.671c-0.215-0.021-0.431-0.04-0.646-0.061c0-6.879,0-13.757,0-20.636
		c-0.279-0.131-0.559-0.263-0.838-0.394c-4.692,5.195-9.385,10.392-14.077,15.587c-0.466-0.396-0.934-0.79-1.4-1.185
		c2.534-6.45,5.067-12.901,7.962-20.269c-7.176,2.815-13.654,5.356-20.916,8.205c5.599-5.332,10.573-10.067,15.547-14.804
		c-0.237-0.454-0.473-0.908-0.71-1.362c-6.944,0-13.888,0-20.831,0c-0.056-0.339-0.113-0.678-0.168-1.017
		c6.305-2.744,12.61-5.487,19.834-8.631c-6.949-3.035-13.184-5.758-19.42-8.482c0.05-0.255,0.1-0.511,0.149-0.768
		c6.768,0,13.535,0,20.529,0c-5.276-5.238-10.239-10.164-15.2-15.09c0.312-0.402,0.624-0.805,0.935-1.207
		c6.477,2.535,12.954,5.069,20.257,7.928c-2.866-7.292-5.419-13.793-7.973-20.293c0.311-0.229,0.622-0.459,0.932-0.688
		c4.753,5.056,9.505,10.113,14.258,15.169c0.312-0.112,0.625-0.225,0.937-0.338c0-6.854,0-13.71,0-20.564
		c0.301-0.041,0.602-0.082,0.904-0.123c2.705,6.216,5.411,12.431,8.51,19.551c3.074-7.026,5.826-13.314,8.577-19.603
		c0.246,0.006,0.492,0.012,0.737,0.019c0,6.902,0,13.804,0,21.659c5.579-5.795,10.382-10.785,15.186-15.774
		c0.342,0.252,0.684,0.504,1.026,0.756C73.7-5.65,71.176,0.822,68.315,8.151c7.304-2.876,13.802-5.435,20.301-7.994
		c0.251,0.335,0.503,0.67,0.755,1.006c-5.063,4.734-10.129,9.47-16.047,15.002c8.082,0,14.966,0,21.851,0
		c0.069,0.304,0.138,0.607,0.208,0.911c-6.278,2.742-12.557,5.483-19.733,8.617c6.893,3.02,13.063,5.723,19.234,8.427
		c-0.011,0.25-0.021,0.499-0.03,0.748c-6.812,0-13.624,0-20.436,0C74.279,35.283,74.142,35.696,74.003,36.109z M69.455,25.774
		C69.479,15.38,61.073,6.956,50.696,6.974c-10.364,0.018-18.768,8.484-18.714,18.854c0.052,10.201,8.383,18.55,18.576,18.618
		C60.936,44.515,69.431,36.12,69.455,25.774z"/>
</g>
</svg>
